<?xml version="1.0" encoding="utf-8"?>
<!-- Generator: Adobe Illustrator 24.1.1, SVG Export Plug-In . SVG Version: 6.00 Build 0)  -->
<svg version="1.1" id="Layer_1" xmlns="http://www.w3.org/2000/svg" xmlns:xlink="http://www.w3.org/1999/xlink" x="0px" y="0px"
	 viewBox="0 0 512 512" style="enable-background:new 0 0 512 512;" xml:space="preserve">
<g>
	<path d="M187.7,512h119.5V298.7h75.2l11.9-119.5h-87.1v-42.7c0-9.8,1.5-12.5,2.4-13.3c1-0.9,5.7-3.8,23.2-3.8h68.3V10.9l-14.6-2.2
		c-1.1-0.2-3.6-0.7-6.3-1.2C366.9,4.9,342,0,315.7,0c-77.8,0-128,50.2-128,128v51.2h-76.8v119.5h76.8V512z M145.1,264.5v-51.2h76.8
		V128c0-58.8,35.1-93.9,93.9-93.9c19.2,0,38.3,3.2,51.2,5.6v45.6h-34.1c-22,0-36,3.8-45.7,12.2c-12.4,10.9-14,26.6-14,39v76.8h83.5
		l-5.1,51.2h-78.4v213.3h-51.2V264.5H145.1z"/>
</g>
</svg>
