<?xml version="1.0" encoding="utf-8"?>
<!-- Generator: Adobe Illustrator 24.1.1, SVG Export Plug-In . SVG Version: 6.00 Build 0)  -->
<svg version="1.1" id="Layer_1" xmlns="http://www.w3.org/2000/svg" xmlns:xlink="http://www.w3.org/1999/xlink" x="0px" y="0px"
	 viewBox="0 0 512 512" style="enable-background:new 0 0 512 512;" xml:space="preserve">
<g id="XMLID_1_">
	<path id="XMLID_6_" d="M437.1,74.5C389.6,26.1,325.3,0,257.4,0C117.7,0,4.2,113.6,4.2,254.1c0,44.7,12.1,88.4,33.5,126.6L1.4,512
		l134.1-35.4c37.2,20.5,79.1,30.7,121,30.7l0,0c139.6,0,254.1-113.6,254.1-254.1C511.5,186.2,484.5,122.9,437.1,74.5L437.1,74.5z
		 M257.4,464.5L257.4,464.5c-38.2,0-75.4-10.2-107.1-29.8l-7.4-4.7l-80.1,21.4l21.4-78.2l-4.7-8.4C58.2,331.4,47,292.3,47,252.3
		C47,135.9,142,41,258.3,41c55.9,0,108.9,22.3,148.9,61.4c40,40,61.4,93.1,61.4,148.9C468.7,370.5,373.7,464.5,257.4,464.5
		L257.4,464.5z M372.8,307.2c-6.5-2.8-37.2-18.6-43.8-20.5c-5.6-1.9-10.2-2.8-14,2.8c-4.7,6.5-16.8,20.5-20.5,25.1
		c-3.7,4.7-7.4,4.7-14,1.9c-6.5-2.8-27-10.2-51.2-31.7c-18.6-16.8-31.7-37.2-35.4-43.8c-3.7-6.5,0-10.2,2.8-13
		c2.8-2.8,6.5-7.4,9.3-11.2c2.8-3.7,4.7-6.5,6.5-10.2c1.9-4.7,0.9-7.4-0.9-11.2c-1.9-2.8-14-34.4-19.5-47.5
		c-4.7-12.1-10.2-10.2-14-11.2c-3.7,0-7.4,0-12.1,0s-11.2,1.9-16.8,7.4c-5.6,6.5-22.3,21.4-22.3,53.1s22.3,61.4,26.1,65.2
		c2.8,4.7,44.7,68,108,95.9c14.9,6.5,27,10.2,36.3,13c14.9,4.7,28.9,3.7,40,2.8c12.1-1.9,37.2-14.9,42.8-29.8
		c5.6-14.9,5.6-27.9,3.7-29.8C384,311.9,379.3,310,372.8,307.2L372.8,307.2z"/>
</g>
</svg>
